<?xml version="1.0" standalone="no"?>
<!DOCTYPE svg PUBLIC "-//W3C//DTD SVG 20010904//EN"
 "http://www.w3.org/TR/2001/REC-SVG-20010904/DTD/svg10.dtd">
<svg version="1.0" xmlns="http://www.w3.org/2000/svg"
 width="159.000000pt" height="159.000000pt" viewBox="0 0 159.000000 159.000000"
 preserveAspectRatio="xMidYMid meet">
<metadata>
Created by potrace 1.11, written by Peter Selinger 2001-2013
</metadata>
<g transform="translate(0.000000,159.000000) scale(0.100000,-0.100000)"
fill="#000000" stroke="none">
<path d="M312 1400 c-30 -13 -37 -34 -22 -70 16 -39 33 -48 190 -105 74 -26
146 -52 160 -57 22 -8 16 -13 -63 -49 -59 -28 -103 -41 -138 -43 -44 -2 -56
-7 -81 -35 -34 -38 -33 -56 3 -83 35 -26 76 -17 128 26 27 22 84 49 174 80
l134 48 142 -51 c101 -36 151 -60 172 -80 49 -50 129 -50 144 0 15 46 -56 107
-112 96 -29 -5 -209 72 -196 84 4 4 76 31 158 60 164 58 205 85 205 137 0 21
-7 32 -25 40 -48 22 -43 24 -420 -147 l-70 -31 -200 91 c-206 94 -244 106
-283 89z"/>
<path d="M210 850 c0 -29 4 -40 15 -40 13 0 15 -35 15 -255 0 -220 -2 -255
-15 -255 -11 0 -15 -11 -15 -40 l0 -40 588 2 587 3 3 37 c3 33 0 38 -17 38
-21 0 -21 4 -21 254 0 245 1 254 20 259 15 4 20 14 20 41 l0 36 -590 0 -590 0
0 -40z"/>
</g>
</svg>
